<?xml version="1.0" encoding="UTF-8"?>
<svg width="24" height="24" viewBox="0 0 24 24" fill="none" xmlns="http://www.w3.org/2000/svg">
    <path d="M12 2.5C12 2.5 14.5 2.5 17.5 5.5C20.5 8.5 20.5 11 20.5 11C20.5 11 20.5 13.5 17.5 16.5C14.5 19.5 12 19.5 12 19.5M12 2.5C12 2.5 9.5 2.5 6.5 5.5C3.5 8.5 3.5 11 3.5 11C3.5 11 3.5 13.5 6.5 16.5C9.5 19.5 12 19.5 12 19.5M12 2.5V19.5" stroke="white" stroke-width="1.5"/>
    <path d="M12 21.5V19.5M7.5 12L4.5 15L7.5 12ZM16.5 12L19.5 15L16.5 12Z" stroke="white" stroke-width="1.5"/>
</svg>
